<?xml version="1.0" encoding="UTF-8"?>
<svg id="Layer_2" data-name="Layer 2" xmlns="http://www.w3.org/2000/svg" viewBox="0 0 256.09 256.38">
  <defs>
    <style>
      .cls-1 {
        stroke-width: 0px;
      }
    </style>
  </defs>
  <g id="Layer_1-2" data-name="Layer 1">
    <g>
      <path class="cls-1" d="m50.31,48.16c10.1,0,18.86-.03,27.63.01,6.54.03,10.39,3.19,10.21,8.23-.17,4.78-4.02,7.79-10.24,7.81-14.61.04-29.22.05-43.83,0-7.11-.03-10.05-2.87-10.09-9.96-.09-14.77-.08-29.55,0-44.33C24.01,3.8,27.28,0,32.13.07c4.87.07,7.82,3.76,7.87,10.05.06,7.92.01,15.85.01,24.25,7.62-5.49,14.4-10.98,21.75-15.57,74.67-46.68,175.95-1.94,192.06,84.74,12.82,68.99-30.25,134.94-97.83,149.81C82.23,269.57,10.59,219.12.92,144.05c-.61-4.76-.83-9.6-.91-14.41-.1-5.55,2.92-9.11,7.51-9.39,4.85-.29,8.4,3.06,8.5,8.91.34,19.31,4.62,37.64,14.64,54.15,25.02,41.22,62.05,61.2,109.93,55.99,46.17-5.02,78.13-31.28,93.5-75.11,22.6-64.48-18.14-133.89-85.32-146.14-35.9-6.55-68.1,2.62-95.61,27.02-.72.64-1.32,1.42-2.84,3.08Z"/>
      <path class="cls-1" d="m200.18,132.53c0,11.29-.12,22.58.05,33.87.08,5.23-2.09,8.26-7,10.06-20.39,7.5-40.66,15.3-61.08,22.72-2.41.88-5.7.85-8.11-.03-20.41-7.44-40.68-15.25-61.06-22.75-4.96-1.83-6.92-4.92-6.89-10.11.13-22.75.12-45.5,0-68.24-.02-4.94,1.74-8.08,6.53-9.86,20.52-7.6,40.94-15.49,61.51-22.96,2.54-.92,6.02-.73,8.61.21,20.1,7.3,40.06,15.01,60.14,22.37,5.33,1.95,7.49,5.23,7.37,10.85-.24,11.29-.07,22.58-.07,33.87Zm-16.06-24.73c-11.53,4.32-22.07,8.25-32.59,12.22-4.96,1.87-11.72,2.52-14.3,6.13-2.56,3.58-1.01,10.18-1.04,15.45-.08,12.74-.03,25.48-.03,38.83,1.95-.61,3.34-.97,4.69-1.47,11.03-4.11,22.06-8.21,33.07-12.37,10.23-3.87,10.21-3.91,10.21-14.7v-44.09Zm-111.92.01c0,18.24-.07,35.48.15,52.72.01,1.18,1.89,2.89,3.26,3.42,13.45,5.19,26.98,10.18,40.49,15.2,1.16.43,2.39.68,4.04,1.13,0-13.84.03-27.1-.02-40.36-.02-4.62,1.37-10.36-.83-13.56-2.19-3.18-8.04-3.92-12.35-5.56-11.28-4.28-22.6-8.46-34.74-13Zm97.11-11.63c-13.6-5.14-25.98-9.86-38.41-14.46-1.31-.49-3.05-.77-4.29-.32-12.85,4.67-25.63,9.51-38.55,14.35.45.62.59,1.03.84,1.13,12.4,4.7,24.79,9.4,37.23,14,1.15.42,2.71.5,3.84.08,12.72-4.69,25.39-9.51,39.34-14.78Z"/>
    </g>
  </g>
</svg>