<svg width="26" height="26" viewBox="0 0 26 26" fill="none" xmlns="http://www.w3.org/2000/svg">
<g clip-path="url(#clip0_1374_1007)">
<path d="M12.9979 16.4685C14.9125 16.4685 16.4646 14.9164 16.4646 13.0018C16.4646 11.0872 14.9125 9.53516 12.9979 9.53516C11.0833 9.53516 9.53125 11.0872 9.53125 13.0018C9.53125 14.9164 11.0833 16.4685 12.9979 16.4685Z" fill="black"/>
<path d="M9.7474 2.16797L7.7649 4.33464H4.33073C3.13906 4.33464 2.16406 5.30964 2.16406 6.5013V19.5013C2.16406 20.693 3.13906 21.668 4.33073 21.668H21.6641C22.8557 21.668 23.8307 20.693 23.8307 19.5013V6.5013C23.8307 5.30964 22.8557 4.33464 21.6641 4.33464H18.2299L16.2474 2.16797H9.7474ZM12.9974 18.418C10.0074 18.418 7.58073 15.9913 7.58073 13.0013C7.58073 10.0113 10.0074 7.58464 12.9974 7.58464C15.9874 7.58464 18.4141 10.0113 18.4141 13.0013C18.4141 15.9913 15.9874 18.418 12.9974 18.418Z" fill="black"/>
<circle cx="20.5833" cy="7.58333" r="1.08333" fill="#FFE175"/>
</g>
<defs>
<clipPath id="clip0_1374_1007">
<rect width="26" height="26" fill="white"/>
</clipPath>
</defs>
</svg>
