<svg width="26" height="26" viewBox="0 0 26 26" fill="none" xmlns="http://www.w3.org/2000/svg">
<g clip-path="url(#clip0_2023_2019)">
<path d="M9.75033 17.3333H20.5837V19.5H9.75033V17.3333ZM26.0003 8.21817V26H4.33366V20.9278L6.50033 23.0945V23.8333H23.8337V9.75H16.2503V2.16667H7.58366C6.98674 2.16667 6.50033 2.652 6.50033 3.25V5.62142C5.98141 5.48817 5.43649 5.41667 4.87533 5.41667C4.69333 5.41667 4.51241 5.42425 4.33366 5.43942V3.25C4.33366 1.45817 5.79183 0 7.58366 0H17.7822L26.0003 8.21817ZM18.417 7.58333H22.3018L18.417 3.6985V7.58333ZM20.5837 13H11.2854C11.1554 13.7778 10.8867 14.5091 10.5065 15.1667H20.5847L20.5837 13ZM2.16699 21.1142V15.2967C1.17683 14.5015 0.541992 13.2828 0.541992 11.9167C0.541992 9.52683 2.48549 7.58333 4.87533 7.58333C7.26516 7.58333 9.20866 9.52683 9.20866 11.9167C9.20866 13.2828 8.57383 14.5015 7.58366 15.2967V21.1142L4.87533 18.4058L2.16699 21.1142ZM2.70866 11.9167C2.70866 13.1116 3.68041 14.0833 4.87533 14.0833C6.07024 14.0833 7.04199 13.1116 7.04199 11.9167C7.04199 10.7218 6.07024 9.75 4.87533 9.75C3.68041 9.75 2.70866 10.7218 2.70866 11.9167Z" fill="black" style="fill:black;fill-opacity:1;"/>
</g>
<defs>
<clipPath id="clip0_2023_2019">
<rect width="26" height="26" fill="white" style="fill:white;fill-opacity:1;"/>
</clipPath>
</defs>
</svg>
