<?xml version="1.0" encoding="UTF-8"?>
<svg id="Layer_2" data-name="Layer 2" xmlns="http://www.w3.org/2000/svg" viewBox="0 0 215.68 256.54">
  <defs>
    <style>
      .cls-1 {
        stroke-width: 0px;
      }
    </style>
  </defs>
  <g id="Layer_1-2" data-name="Layer 1">
    <g>
      <path class="cls-1" d="m215.45,82.89c.82,26.26-.3,52.35-7.54,77.87-10.97,38.67-34.97,66.39-70.37,84.54-7.93,4.07-16.28,7.41-24.67,10.46-2.85,1.04-6.7,1.03-9.58.03C47.53,236.39,12.88,198.83,3.51,139.41-1.31,108.87-.01,78.21.77,47.54c.18-7.29,3.69-9.56,11.78-10.45,13.13-1.44,26.39-2.63,39.23-5.56,17.94-4.09,33.28-13.68,46.81-26.13,7.81-7.19,11.21-7.24,19.06.02,23.6,21.84,51.99,30.95,83.56,31.73,1.33.03,2.66,0,3.98.11,6.92.56,10.03,3.32,10.2,10.29.29,11.77.08,23.55.08,35.33ZM107.39,24.03c.28-.14-.22,0-.58.3-23.89,19.91-51.54,30.12-82.42,31.84-3.51.2-4.47,1.59-4.51,4.81-.37,24.71-.98,49.41,2.58,74.01,6.46,44.73,29.85,76.58,70.76,95.98,10.03,4.76,18.46,5.42,28.84.51,39.68-18.79,63.76-48.97,71.03-92.5,4.27-25.54,3.58-51.23,3.33-76.95-.04-4.55-1.68-5.72-6.04-5.99-19.04-1.17-37.44-5.38-54.35-14.36-9.74-5.17-18.84-11.56-28.64-17.67Z"/>
      <path class="cls-1" d="m95.7,140.23c11.73-11.96,22.73-23.21,33.76-34.42,2.79-2.84,5.64-5.62,8.57-8.32,4.82-4.44,10.02-4.53,14.06-.36,4.01,4.15,3.94,9.5-.6,14.14-9.73,9.97-19.62,19.78-29.46,29.65-5.74,5.75-11.43,11.55-17.29,17.19-7.07,6.81-11.21,6.75-18.16-.14-7.19-7.12-14.36-14.26-21.43-21.5-4.79-4.91-5.13-10.38-1.16-14.52,4.16-4.34,9.85-4.17,14.86.79,5.52,5.47,10.8,11.18,16.84,17.48Z"/>
    </g>
  </g>
</svg>