<svg width="30" height="41" viewBox="0 0 30 41" fill="none" xmlns="http://www.w3.org/2000/svg">
<path d="M23.1111 23.9375H10.6667L8 29.5837L16.8889 40.8762L25.7778 29.5837L23.1111 23.9375ZM14.7733 28.6427L16.1067 25.8196H17.6711L19.0044 28.6427H14.7733ZM16 30.5248V36.8109L11.0578 30.5248H16ZM17.7778 30.5248H22.72L17.7778 36.8109V30.5248ZM23.3422 28.6427H20.9867L19.6533 25.8196H22.0089L23.3422 28.6427ZM11.7689 25.8196H14.1244L12.7911 28.6427H10.4356L11.7689 25.8196Z" fill="black"/>
<path d="M28.807 10.079L28.8071 10.0795C28.8321 10.154 28.8474 10.23 28.8533 10.308C28.8542 10.3119 28.8552 10.3164 28.8562 10.3211C28.859 10.3355 28.8619 10.3553 28.8619 10.3788V36.2156C28.8619 36.8137 28.6334 37.4002 28.2306 37.8268C28.2305 37.8269 28.2305 37.8269 28.2304 37.827L28.0487 37.6553C27.686 38.0399 27.2026 38.2522 26.6882 38.2522H23C22.655 38.2522 22.5 38.0084 22.5 37.6432C22.5 37.2779 22.655 36.9306 23 36.9306H26.6882C26.8686 36.9306 27.038 36.8564 27.1654 36.7215C27.2916 36.5879 27.3635 36.404 27.3635 36.2156L28.807 10.079ZM28.807 10.079C28.8051 10.0736 28.8054 10.0738 28.8003 10.0573C28.7966 10.0454 28.7904 10.0258 28.7808 10.0039M28.807 10.079L28.605 10.3427C28.6017 10.2796 28.5902 10.2188 28.5701 10.1591C28.5679 10.1526 28.566 10.1461 28.564 10.1396C28.5603 10.1274 28.5567 10.1153 28.5515 10.1035L28.7808 10.0039M18.794 11.014C18.9572 11.1892 19.1831 11.2896 19.4205 11.2896H27.1135L28.6129 9.74155L28.6129 9.74151L28.6126 9.7412L28.6114 9.73996L28.6068 9.73502L28.5884 9.71553L28.5169 9.63951L28.2455 9.35098L27.2766 8.3213C26.4746 7.46922 25.4051 6.33327 24.335 5.19781C23.2651 4.06193 22.1941 2.92737 21.3893 2.07673L21.3893 2.07668L21.3663 2.05236C20.8026 1.45688 20.4161 1.04857 20.138 0.786761L20.0001 0.553071L19.9342 0.604989C19.8056 0.498306 19.6881 0.419616 19.5744 0.377335C19.4876 0.345039 19.3974 0.33153 19.3042 0.345039C19.2444 0.353713 19.191 0.37243 19.1437 0.395649L2.93351 0.396241C2.93351 0.396241 2.93351 0.396241 2.9335 0.396241C1.71596 0.396247 0.75 1.44092 0.75 2.69444V36.1079C0.75 36.7422 0.983429 37.3422 1.41247 37.7971L1.413 37.7977C1.83634 38.2438 2.42297 38.5022 3.02551 38.5022H11.2343C11.7306 38.5022 12.1085 38.0811 12.1085 37.5914C12.1085 37.1017 11.7306 36.6806 11.2343 36.6806H3.02551C2.89284 36.6806 2.757 36.6225 2.65766 36.5185C2.55807 36.4128 2.49835 36.2627 2.49835 36.1079V2.69444C2.49835 2.41775 2.7073 2.21783 2.93351 2.21783H2.93352L18.5799 2.21724C18.5975 3.89083 18.5723 7.78803 18.5463 10.3691M18.794 11.014C18.632 10.8406 18.5439 10.6084 18.5463 10.3691M18.794 11.014C18.7939 11.0139 18.7938 11.0138 18.7937 11.0137L18.9767 10.8435L18.7941 11.0141C18.7941 11.0141 18.7941 11.0141 18.794 11.014ZM18.5463 10.3691L18.7963 10.3717M18.5463 10.3691C18.5463 10.3691 18.5463 10.3692 18.5463 10.3692L18.7963 10.3717M18.7963 10.3717C18.7945 10.5485 18.8597 10.7182 18.9768 10.8434C19.0938 10.9692 19.2541 11.0396 19.4205 11.0396H27.1135L18.7963 10.3717ZM28.7808 10.0039C28.7434 9.91777 28.6913 9.82485 28.613 9.74159L28.7808 10.0039ZM25.9072 9.46796H20.3038C20.3305 6.66467 20.3415 4.80416 20.3386 3.56119C21.7587 5.06294 23.9488 7.38723 25.9072 9.46796Z" fill="black" stroke="black" stroke-width="0.5"/>
</svg>
