<svg width="26" height="26" viewBox="0 0 26 26" fill="none" xmlns="http://www.w3.org/2000/svg">
<g clip-path="url(#clip0_1374_1013)">
<path fill-rule="evenodd" clip-rule="evenodd" d="M21.6641 3.25H4.33073C3.13906 3.25 2.16406 4.225 2.16406 5.41667V20.5833C2.16406 21.775 3.13906 22.75 4.33073 22.75H21.6641C22.8557 22.75 23.8307 21.775 23.8307 20.5833V5.41667C23.8307 4.225 22.8557 3.25 21.6641 3.25ZM21.6641 20.5833H4.33073V5.41667H21.6641V20.5833Z" fill="black"/>
<path fill-rule="evenodd" clip-rule="evenodd" d="M20.6732 11.6419C20.8688 11.4467 20.869 11.1298 20.6736 10.9344L19.8427 10.1036C19.6475 9.90829 19.3309 9.90829 19.1356 10.1036L16.4098 12.8294C16.2141 13.0251 15.8965 13.0246 15.7015 12.8281L14.881 12.0019C14.686 11.8054 14.3684 11.8049 14.1727 12.0006L13.3523 12.821C13.1575 13.0158 13.157 13.3314 13.3511 13.5269L15.7018 15.8943C15.8967 16.0906 16.214 16.0914 16.4098 15.896L20.6732 11.6419Z" fill="#4BC750"/>
<path d="M10.6307 7.58203H5.61406C5.50361 7.58203 5.41406 7.67157 5.41406 7.78203V9.5487C5.41406 9.65915 5.50361 9.7487 5.61406 9.7487H10.6307C10.7412 9.7487 10.8307 9.65915 10.8307 9.5487V7.78203C10.8307 7.67157 10.7412 7.58203 10.6307 7.58203Z" fill="black"/>
<path d="M10.6307 11.918H5.61406C5.50361 11.918 5.41406 12.0075 5.41406 12.118V13.8846C5.41406 13.9951 5.50361 14.0846 5.61406 14.0846H10.6307C10.7412 14.0846 10.8307 13.9951 10.8307 13.8846V12.118C10.8307 12.0075 10.7412 11.918 10.6307 11.918Z" fill="black"/>
<path d="M10.6307 16.25H5.61406C5.50361 16.25 5.41406 16.3395 5.41406 16.45V18.2167C5.41406 18.3271 5.50361 18.4167 5.61406 18.4167H10.6307C10.7412 18.4167 10.8307 18.3271 10.8307 18.2167V16.45C10.8307 16.3395 10.7412 16.25 10.6307 16.25Z" fill="black"/>
</g>
<defs>
<clipPath id="clip0_1374_1013">
<rect width="26" height="26" fill="white"/>
</clipPath>
</defs>
</svg>
