<?xml version="1.0" encoding="UTF-8"?>
<svg id="Layer_2" data-name="Layer 2" xmlns="http://www.w3.org/2000/svg" viewBox="0 0 329.17 217.04">
  <defs>
    <style>
      .cls-1 {
        stroke-width: 0px;
      }
    </style>
  </defs>
  <g id="Layer_1-2" data-name="Layer 1">
    <path class="cls-1" d="m158.1,118.6c-15.03,6.04-29.22,12.08-43.64,17.46-18.37,6.86-37.04,12.77-56.85,13.76-4.29.21-8.68.25-12.92-.37-9.52-1.39-17.1-5.51-21.18-15.07-6.63-15.55-13.87-30.84-20.63-46.33-4.38-10.03-3.77-14.61,1.8-19.3,5.64-4.75,17.39-5.23,23.91-.62,9.48,6.71,18.81,13.64,28.15,20.55,2.73,2.02,5.27,2.88,8.69,1.31,15.98-7.34,32.05-14.46,48.09-21.68.7-.32,1.35-.75,2.76-1.54-6.51-3.96-12.4-7.55-18.3-11.14-8.93-5.43-17.88-10.84-26.78-16.32-1.83-1.13-3.64-2.36-5.23-3.79-5.61-5.05-4.54-12.3,2.06-15.92,12.94-7.1,26.31-8.2,40.38-3.85,23.14,7.15,46.32,14.15,69.54,21,2.27.67,5.29.48,7.46-.46,23.31-10.03,46.33-20.76,69.82-30.35,19.56-7.99,39.53-8.43,58.66,1.88,4.42,2.38,8.44,5.93,11.84,9.67,4.66,5.12,4.7,11.08-.67,15.4-8.35,6.71-17.11,13.19-26.51,18.26-19.99,10.78-40.54,20.54-60.77,30.9-2,1.03-3.97,3.02-4.92,5.05-15.64,33.31-31.17,66.66-46.59,100.07-6.18,13.39-15.19,23.57-29.61,28.36-3.78,1.25-7.93,2.93-10.53-.64-2.11-2.91-3.66-7.26-3.29-10.74,1.03-9.69,3.12-19.28,4.93-28.89,3.3-17.58,6.7-35.14,10.03-52.72.21-1.1.17-2.25.29-3.94ZM315.49,25.43c-5.17-5.99-11.08-8.52-17.39-10.19-15.7-4.16-30.62-1.09-45.06,5.32-59.72,26.54-119.48,52.96-179.03,79.87-10.42,4.71-18.91,4.01-27.61-3.01-7.35-5.93-15.16-11.31-22.73-16.98-3.08-2.3-6.23-3.57-10.13-1.58.17.85.17,1.53.42,2.1,7.28,16.35,14.44,32.75,22.06,48.94,1.17,2.48,4.37,5.28,6.93,5.6,7.16.91,14.61,1.6,21.69.6,29.07-4.1,55.72-15.84,82.4-27.3,9.25-3.97,18.43-8.09,28.86-12.69-6.67,35.66-13.1,70.06-19.83,106.02,3.47-2.33,6.29-3.42,7.88-5.46,3.95-5.05,8.13-10.16,10.84-15.9,15.97-33.87,31.48-67.95,47.39-101.85,1.33-2.84,4.1-5.61,6.91-7.06,21.23-10.94,42.73-21.35,63.92-32.37,7.71-4.01,14.8-9.22,22.47-14.07Zm-152.14,20.75c-6.09-1.92-10.74-3.47-15.43-4.86-16.37-4.86-32.7-9.93-49.19-14.37-6.13-1.65-12.68-1.81-18.65,1.71.28.59.34,1.02.58,1.16,16.17,9.81,32.33,19.63,48.57,29.33,1.1.65,3.01.86,4.16.37,9.56-4.11,19.03-8.43,29.96-13.33Z"/>
  </g>
</svg>