<svg width="25" height="27" viewBox="0 0 25 27" fill="none" xmlns="http://www.w3.org/2000/svg">
<path d="M11.25 7.11801H13.75V9.76468H11.25V7.11801ZM11.25 12.4113H13.75V20.3513H11.25V12.4113ZM12.5 0.501343C5.6 0.501343 0 6.42988 0 13.7347C0 21.0395 5.6 26.968 12.5 26.968C19.4 26.968 25 21.0395 25 13.7347C25 6.42988 19.4 0.501343 12.5 0.501343ZM12.5 24.3213C6.9875 24.3213 2.5 19.5706 2.5 13.7347C2.5 7.89878 6.9875 3.14801 12.5 3.14801C18.0125 3.14801 22.5 7.89878 22.5 13.7347C22.5 19.5706 18.0125 24.3213 12.5 24.3213Z" fill="#2D75FF"/>
</svg>
