<svg width="38" height="38" viewBox="0 0 38 38" fill="none" xmlns="http://www.w3.org/2000/svg">
<path d="M4.78702 17.3713C5.10061 18.6881 5.55357 19.9357 6.11106 21.1139C7.33057 23.8515 9.17726 26.2426 11.6163 28.3564C13.672 30.1238 16.1459 31.6832 19.0031 33C19.0711 33 19.1593 33.0179 19.2121 32.9653C28.0971 28.9455 33.0797 22.7079 34.0205 14.5297C34.0902 13.9059 34.125 13.3861 34.125 12.9356C34.125 12.6238 34.0902 12.2772 34.0553 11.9653C33.7417 9.50494 32.3131 7.39109 30.2574 6.14357C30.2574 6.14357 30.2574 6.14357 30.2226 6.14357C29.003 5.41584 27.6093 5 26.0762 5C23.2539 5 19.7348 7.14852 19.1076 7.56436C18.4804 7.14852 14.9612 5 12.1389 5C10.6058 5 9.21212 5.41584 7.99261 6.14357C7.99261 6.14357 7.95776 6.14358 7.95776 6.17823C5.65811 7.56437 4.125 10.0941 4.125 12.9703C4.125 13.4208 4.15985 13.9406 4.22953 14.5644C4.36891 15.5 4.54312 16.4703 4.78702 17.3713ZM5.1703 17.4752L8.37589 16.6782L6.28527 20.6634C5.79747 19.6238 5.44904 18.5842 5.1703 17.4752ZM11.1285 13.7327L8.68946 16.1584L4.71734 12.0693L11.1285 9.71287V13.7327ZM11.1982 14.1485L11.9299 18.5841L8.9682 16.3663L11.1982 14.1485ZM8.75914 16.6782L11.9996 19.0693L11.1982 22.2574L6.52919 20.9406L8.75914 16.6782ZM12.2435 19.3812L15.2051 23.0545L11.5118 22.3267L12.2435 19.3812ZM6.56404 21.3218L10.9543 22.5347L8.68946 24.7525C7.88806 23.6782 7.15638 22.5346 6.56404 21.3218ZM8.93338 25.0644L11.1633 22.8465L11.5466 27.802C10.571 26.9356 9.69993 26.0347 8.93338 25.0644ZM11.4769 22.6733L15.4839 23.4703L16.2853 27.4901L11.8951 28.0099L11.4769 22.6733ZM15.902 23.7475L18.8288 25.9307L16.6337 27.3861L15.902 23.7475ZM12.1389 28.3564L16.2853 27.8713L15.5536 30.7822C14.3341 30.0198 13.1842 29.2228 12.1389 28.3564ZM15.8672 30.9555L16.564 28.1485L18.7243 32.4802C17.7487 31.995 16.7731 31.5099 15.8672 30.9555ZM19.1424 32.4802L16.7731 27.7327L19.1773 26.1386L21.5815 27.7327L19.1424 32.4802ZM19.456 25.9307L22.3828 23.7475L21.6511 27.3861L19.456 25.9307ZM19.4909 32.5148L21.686 28.1485L22.4525 30.9208C21.5466 31.4753 20.5362 31.995 19.4909 32.5148ZM22.7661 30.7475L21.9647 27.8713L26.0762 28.3911C25.1006 29.2228 23.9856 29.9852 22.7661 30.7475ZM21.9647 27.5248L22.7661 23.5049L26.7731 22.7079L26.3201 28.0792L21.9647 27.5248ZM23.0449 23.0545L26.0065 19.3812L26.7382 22.3267L23.0449 23.0545ZM26.7034 27.8366L27.1215 22.8465L29.3515 25.0644C28.5849 26.0347 27.7139 26.9703 26.7034 27.8366ZM29.5605 24.7871L27.2957 22.5693L31.7208 21.3218C31.1285 22.5346 30.4316 23.6782 29.5605 24.7871ZM27.1215 22.2574L26.3201 19.0693L29.5605 16.6782L31.7905 20.9752L27.1215 22.2574ZM27.0867 14.1485L29.3166 16.3663L26.3549 18.5841L27.0867 14.1485ZM26.8079 13.5594L22.5222 12.1386L26.8079 9.74753V13.5594ZM27.1564 13.7327V9.71287L33.5675 12.0693L29.5954 16.1584L27.1564 13.7327ZM31.9996 20.698L29.909 16.6782L33.1145 17.4752C32.8358 18.5842 32.4874 19.6584 31.9996 20.698ZM33.7765 12.9356C33.7765 13.3515 33.7417 13.8713 33.672 14.4951C33.5675 15.3961 33.4281 16.2624 33.2191 17.1287L29.9438 16.297L33.7765 12.3812C33.7765 12.5545 33.7765 12.7624 33.7765 12.9356ZM33.672 11.7228L27.2957 9.40098L30.2226 6.49009C32.0344 7.63366 33.3236 9.53961 33.672 11.7228ZM26.1111 5.31189C27.5048 5.31189 28.794 5.69307 29.909 6.31683L26.9821 9.22771L23.7766 5.72771C24.578 5.48514 25.3794 5.31189 26.1111 5.31189ZM26.7034 9.43564L22.0693 12L19.4212 11.1337L23.463 5.90098L26.7034 9.43564ZM19.3166 7.84159C19.6651 7.63366 21.1982 6.66336 22.9752 6.00494L19.3166 10.6832V7.84159ZM19.3166 11.4455L21.6511 12.2079L19.3166 13.4901V11.4455ZM19.0727 13.9406C19.1076 13.9406 19.1076 13.9752 19.1424 13.9752C19.1773 13.9752 19.2121 13.9752 19.2121 13.9406L22.0693 12.3465L26.7382 13.9059L25.902 18.9307L22.4525 23.1931L19.1424 25.7228L15.7975 23.2277L12.348 18.9653L11.5118 13.9406L16.1807 12.3812L19.0727 13.9406ZM11.4769 13.5594V9.74753L15.7626 12.104L11.4769 13.5594ZM16.6337 12.2079L18.9682 11.4455V13.5248L16.6337 12.2079ZM18.9682 7.84159V10.6832L15.24 5.9703C17.0518 6.62872 18.6198 7.59901 18.9682 7.84159ZM18.8637 11.1337L16.2156 12L11.5815 9.43564L14.7522 5.90098L18.8637 11.1337ZM12.1738 5.31189C12.9055 5.31189 13.672 5.4505 14.4734 5.69308L11.3027 9.19308L8.37589 6.28217C9.49087 5.69306 10.7801 5.31189 12.1738 5.31189ZM8.06229 6.49009L10.9891 9.40098L4.61281 11.7228C4.96124 9.53961 6.25045 7.66831 8.06229 6.49009ZM4.54313 12.3812L8.37589 16.297L5.10062 17.1287C4.89156 16.2624 4.75219 15.3961 4.64766 14.4951C4.54313 13.8713 4.50828 13.3515 4.50828 12.9356C4.50828 12.7624 4.50829 12.5545 4.54313 12.3812Z" fill="black" stroke="black" stroke-width="0.3"/>
</svg>
