<svg width="39" height="38" viewBox="0 0 39 38" fill="none" xmlns="http://www.w3.org/2000/svg">
<path fill-rule="evenodd" clip-rule="evenodd" d="M19.75 33.2311C27.6092 33.2311 33.9811 26.86 33.9811 19C33.9811 11.1408 27.61 4.76895 19.75 4.76895C11.8908 4.76895 5.51895 11.14 5.51895 19C5.51895 26.8592 11.89 33.2311 19.75 33.2311ZM19.75 34C28.0339 34 34.75 27.2839 34.75 19C34.75 10.7161 28.0339 4 19.75 4C11.4661 4 4.75 10.7161 4.75 19C4.75 27.2839 11.4661 34 19.75 34Z" fill="black"/>
<path fill-rule="evenodd" clip-rule="evenodd" d="M25.9837 6.0041L6.56024 25.4275L6.0163 24.8828L25.4397 5.46094L25.9837 6.00567V6.0041Z" fill="black"/>
<path fill-rule="evenodd" clip-rule="evenodd" d="M32.7527 25.2408C25.0924 17.8529 20.8371 13.5953 13.3198 5.80791L13.8724 5.27344C21.3842 13.0545 25.6332 17.3058 33.2863 24.6866L32.7527 25.2408ZM25.2424 32.9232C18.0187 25.4326 13.8124 21.269 6.02423 13.8969L6.55318 13.3379C14.3492 20.7179 18.5642 24.8903 25.7958 32.3887L25.2424 32.9232Z" fill="black"/>
<path fill-rule="evenodd" clip-rule="evenodd" d="M23.8679 23.1152L33.6732 13.5026L33.1348 12.9531L23.324 22.5713L13.7066 32.3821L14.2553 32.9205L23.8687 23.1152H23.8679Z" fill="black"/>
<path fill-rule="evenodd" clip-rule="evenodd" d="M29.6334 29.6852L23.4795 23.1468L24.04 22.6194L30.1932 29.1578L29.6334 29.6852ZM15.8027 15.856L8.87976 9.31755L9.40792 8.75781L16.3316 15.2962L15.8027 15.856ZM30.5611 9.50939L24.0227 15.6633L23.4953 15.1028L30.0337 8.94965L30.5611 9.50939ZM16.1627 23.2281L9.77716 29.998L9.18926 29.498L15.6037 22.6999L16.1627 23.2281Z" fill="black"/>
<path fill-rule="evenodd" clip-rule="evenodd" d="M13.5969 32.4453C14.0279 21.8569 14.0027 15.9745 13.5969 5.55344L14.365 5.52344C14.7716 15.9634 14.7969 21.8655 14.365 32.4769L13.5969 32.4453ZM25.8329 32.4453C25.4019 21.8569 25.4271 15.9745 25.8329 5.55344L25.0648 5.52344C24.6574 15.9634 24.6329 21.8655 25.0648 32.4769L25.8329 32.4453Z" fill="black"/>
<path fill-rule="evenodd" clip-rule="evenodd" d="M33.029 14.1916C22.5377 14.4735 16.679 14.4727 6.27844 14.1916L6.29897 13.4219C16.6853 13.7037 22.5305 13.7045 33.0092 13.4219L33.0298 14.1916H33.029ZM33.029 24.2116C22.5377 23.929 16.679 23.9298 6.27844 24.2116L6.29897 24.9806C16.6853 24.6987 22.5305 24.6979 33.0092 24.9806L33.0298 24.2116H33.029Z" fill="black"/>
<path fill-rule="evenodd" clip-rule="evenodd" d="M19.3655 14.2299V4.38281H20.1344V14.2299H19.3655ZM19.5289 33.6525V24.422H20.2979V33.6525H19.5281H19.5289ZM24.9131 18.6533H34.5289V19.4223H24.9131V18.6533ZM4.91339 18.6533H14.1439V19.4223H4.91339V18.6533Z" fill="black"/>
</svg>
