<?xml version="1.0" encoding="utf-8"?>
<!-- Generator: Adobe Illustrator 19.2.0, SVG Export Plug-In . SVG Version: 6.00 Build 0)  -->
<svg version="1.1" id="Layer_1" xmlns="http://www.w3.org/2000/svg" xmlns:xlink="http://www.w3.org/1999/xlink" x="0px" y="0px"
	 viewBox="0 0 50 50" style="enable-background:new 0 0 50 50;" xml:space="preserve">
<style type="text/css">
	.st0{fill:none;stroke:#231F20;stroke-width:0.706;stroke-miterlimit:10;}
</style>
<path class="st0" d="M25,5.3c7.5,0,13.5,8.8,13.5,19.7s-6,19.7-13.5,19.7S11.5,35.9,11.5,25S17.5,5.3,25,5.3z M25,5.6l-3.8,7
	l-3.6,12.5L21.3,38l3.7,6.4l3.8-6.7L32.6,25l-4.1-12.7L25,5.6z M25,14.7l-8.8,5.2l-4.5,5.3l4.2,5.3l9.1,5.3l9.3-5.8l4-4.8L34,19.9
	L25,14.7z M25,14.7l-3.8-2.1l-5.9-0.8l0.9,8.1l1.4,5.2l-1.8,5.2l-0.1,8.4l5.6-0.7l3.7-2.2l3.6,2.2l5.9,0.5L34.3,30l-1.7-5l1.6-4.8
	l0.8-8l-6.5,0.1L25,14.7z M19.8,7l1.4,5.6 M12.3,18.3l3.9,1.6 M30.4,7l-1.9,5.3 M37.6,17.9l-3.6,2 M12.7,33l3.2-2.5 M19.5,43l1.8-5
	 M28.6,38l1.9,5 M34.3,30l3.2,2.6"/>
</svg>
