<svg width="38" height="38" viewBox="0 0 38 38" fill="none" xmlns="http://www.w3.org/2000/svg">
<path fill-rule="evenodd" clip-rule="evenodd" d="M26.4548 3H12V33H26.4548V3ZM14.109 4.73475L12.8842 3.51525H25.5705L24.345 4.73475H14.1082H14.109ZM12.519 32.1195V3.8805L13.7415 5.0985V30.9015L12.519 32.1195ZM24.7125 30.9015V5.0985L25.9358 3.8805V32.1195L24.7125 30.9015ZM15.8505 6.46875L14.6265 5.25H23.829L22.6035 6.4695H15.8505V6.46875ZM14.2605 30.3855V5.6145L15.2662 6.6165V29.3843L14.2605 30.3855ZM23.1885 29.3835V6.6165L24.1935 5.6145V30.3855L23.1885 29.3835ZM16.9395 7.5525L16.368 6.984H22.086L21.5153 7.5525H16.9395ZM15.7845 28.8675V7.1325L16.5728 7.917V28.083L15.7852 28.8675H15.7845ZM21.882 28.083V7.917L22.6695 7.1325V28.8675L21.882 28.083ZM17.091 27.9322V8.06775H21.363V27.9322H17.091ZM16.1505 29.2327L16.9395 28.4475H21.5145L22.3042 29.2327H16.1505ZM14.6265 30.75L15.633 29.748H22.8217L23.8275 30.75H14.6258H14.6265ZM12.8842 32.4848L14.109 31.266H24.3465L25.5705 32.4848H12.8842Z" fill="black"/>
</svg>
