<svg xmlns="http://www.w3.org/2000/svg" xmlns:xlink="http://www.w3.org/1999/xlink" version="1.1" id="Layer_1" x="0px" y="0px" viewBox="0 0 150 150" style="enable-background:new 0 0 150 150;" xml:space="preserve">
<style type="text/css">
	.st0{fill:none;stroke:#231F20;stroke-width:1.806;stroke-miterlimit:10;}
</style>
<path class="st0" fill-rule="evenodd" clip-rule="evenodd" d="M84.8574 132.667L69.0951 132.667C47.4856 132.667 29.944 111.164 29.944 84.6754V65.3539C29.944 38.8651 47.4856 17.3623 69.0951 17.3623L84.8574 17.3623C106.466 17.3623 124.009 38.8651 124.009 65.3539V84.6754C124.009 110.852 106.212 132.667 84.8574 132.667Z"  />
<path class="st0" fill-rule="evenodd" clip-rule="evenodd" d="M76.9768 44.7782L94.2643 53.8153L101.637 75.0064L94.2643 96.1978L76.9768 105.235L59.6893 96.1978L52.3164 75.0064L59.6893 53.8153L76.9768 44.7782Z" />
<path class="st0" fill-rule="evenodd" clip-rule="evenodd" d="M59.6885 53.7975L43.6721 54.109L42.1468 31.6715L59.6885 34.7878V53.7975Z" />
<path class="st0" fill-rule="evenodd" clip-rule="evenodd" d="M76.9733 44.7829L59.6858 34.8106L77.9901 17.6707L94.7692 34.4989L76.9733 44.7829Z" />
<path class="st0" d="M59.6838 34.7895L51.5487 22.6357" />
<path class="st0" fill-rule="evenodd" clip-rule="evenodd" d="M94.7708 53.567L110.233 53.8753L111.729 31.6715L94.5213 34.7554L94.7708 53.567Z" />
<path class="st0" d="M94.5213 34.7895L102.911 22.6357"/>
<path class="st0" fill-rule="evenodd" clip-rule="evenodd" d="M59.6885 96.5013L43.6721 95.8781L42.1468 118.316L59.6885 115.511V96.5013Z" />
<path class="st0" fill-rule="evenodd" clip-rule="evenodd" d="M76.9733 105.222L59.6858 115.506L77.9901 132.334L94.7692 115.506L76.9733 105.222Z"/>
<path class="st0" d="M59.6838 115.522L51.5487 127.364"/>
<path class="st0" fill-rule="evenodd" clip-rule="evenodd" d="M94.7644 96.4808L110.39 95.8781L111.902 117.589L94.5126 114.875L94.7644 96.4808Z" />
<path class="st0" d="M94.5213 115.522L102.911 127.364" />
<path class="st0" fill-rule="evenodd" clip-rule="evenodd" d="M101.632 74.6866L110.784 54.4307L123.75 75.9332L110.784 95.878L101.632 74.6866Z" />
<path class="st0" fill-rule="evenodd" clip-rule="evenodd" d="M52.5702 74.6901L43.6725 54.1219L30.4526 75.9367L43.6725 95.8812L52.5702 74.6901Z" />
<path class="st0" d="M43.6717 95.8781L34.0111 106.162" />
<path class="st0" d="M43.6721 54.1157L34.5197 42.8969" />
<path class="st0" d="M110.784 54.4271L119.173 42.8969" />
<path class="st0" d="M110.784 95.8781L119.681 105.538" />
</svg>
