<svg width="38" height="38" viewBox="0 0 38 38" fill="none" xmlns="http://www.w3.org/2000/svg">
<path fill-rule="evenodd" clip-rule="evenodd" d="M15.2393 19.965L18.5718 5.78125L19.2979 5.95167L15.9154 20.3511L4.27094 31.5222L3.75403 30.9835L15.2393 19.965ZM23.3759 19.965L20.0442 5.78125L19.3173 5.95167L22.7007 20.3511L33.5988 30.7759L34.1141 30.2364L23.3759 19.965Z" fill="black"/>
<path fill-rule="evenodd" clip-rule="evenodd" d="M19.1672 26.9892L5.05698 31.4185L4.83325 30.7062L19.1648 26.2074L34.3396 30.8919L34.1199 31.6059L19.1672 26.9892ZM18.9346 14.4491V4.92969H19.6809V14.4491H18.9346Z" fill="black"/>
<path fill-rule="evenodd" clip-rule="evenodd" d="M3.81189 31.3148L12.0187 26.0891L12.4194 26.719L4.2125 31.9448L3.81189 31.3148ZM34.4247 30.9384L26.217 25.8984L25.8269 26.5349L34.0346 31.5748L34.4247 30.9384Z" fill="black"/>
<path fill-rule="evenodd" clip-rule="evenodd" d="M19.3075 4L3.15381 32H35.4612L19.3075 4ZM19.3075 5.49341L4.4461 31.2529H34.1689L19.3075 5.49422V5.49341Z" fill="black"/>
<path fill-rule="evenodd" clip-rule="evenodd" d="M19.3076 13.3359L11.5538 26.7758H27.0614L19.3076 13.3359ZM19.3076 14.8293L12.8461 26.0279H25.7691L19.3076 14.8285V14.8293Z" fill="black"/>
</svg>
