<?xml version="1.0" encoding="utf-8"?>
<!-- Generator: Adobe Illustrator 19.2.0, SVG Export Plug-In . SVG Version: 6.00 Build 0)  -->
<svg version="1.1" id="Layer_1" xmlns="http://www.w3.org/2000/svg" xmlns:xlink="http://www.w3.org/1999/xlink" x="0px" y="0px"
	 viewBox="0 0 50 50" style="enable-background:new 0 0 50 50;" xml:space="preserve">
<style type="text/css">
	.st0{fill:none;stroke:#231F20;stroke-width:0.706;stroke-miterlimit:10;}
</style>
<path class="st0" d="M24.9,4.2c0,0-11.4,6.5-11.4,21.2C13.5,38,25,45.8,25,45.8s11.5-7.1,11.5-20.6S24.9,4.2,24.9,4.2z M24.7,14.2
	c0,0-4,3.4-4,11c0,6.5,4,10.6,4,10.6s4-3.7,4-10.7C28.8,18.1,24.7,14.2,24.7,14.2z M19.4,9.1l16.8,15.8L19.7,40.7 M30.2,9.1
	l-16.3,16l16.3,16.1 M24.9,4.9L21.3,11l-4.2,1.5c0,0-0.7,8.9,3.4,12.8c0,0-3.7,4.1-3.4,11.8l5,1.3l2.8,7l2.5-6.8l5.6-1.5
	c0,0,1.6-7.7-3.9-11.9c0,0,4.4-3.1,3.3-12.9l-4.1-1.4L24.9,4.9z"/>
</svg>
