<svg width="38" height="38" viewBox="0 0 38 38" fill="none" xmlns="http://www.w3.org/2000/svg">
<path fill-rule="evenodd" clip-rule="evenodd" d="M5.53845 7.66012L9.08053 4.92188H29.6583L33.2004 7.66012V30.0453L29.1523 32.5781H9.08053L5.53845 29.8399V7.66012Z" stroke="black" stroke-width="0.7058"/>
<path fill-rule="evenodd" clip-rule="evenodd" d="M8.29834 9.3999L11.1418 7.16406H27.5338L30.3773 9.3999V28.2352L27.1157 30.3355H11.1418L8.29834 28.0997V9.3999Z" stroke="black" stroke-width="0.7058"/>
<path d="M9.21826 4.92188L11.209 7.23902L19.1539 8.60938L27.4666 7.23902L29.4573 4.92188" stroke="black" stroke-width="0.7058"/>
<path d="M8.94214 32.5781L11.2114 30.2734L19.1537 28.4297L27.096 30.2734L28.5375 32.5782" stroke="black" stroke-width="0.7058"/>
<path d="M5.53845 7.91406L8.23101 9.40899L19.3378 8.91068L30.4446 9.2595L33.1372 7.91406" stroke="black" stroke-width="0.7058"/>
<path d="M5.53845 29.4226L8.23101 28.0938L19.3378 28.3706L30.4446 28.2045L33.1372 29.5887" stroke="black" stroke-width="0.7058"/>
<path d="M8.375 27.9688L11.0582 18.5426L8.375 9.53125" stroke="black" stroke-width="0.7058"/>
<path d="M30.3773 9.40625L27.6174 18.7836L30.3773 28.0929" stroke="black" stroke-width="0.7058"/>
<path d="M11.1503 7.16406L11.8862 18.7498L11.1503 30.3355" stroke="black" stroke-width="0.7058"/>
<path d="M27.3875 7.16406V18.953L26.9275 30.3355" stroke="black" stroke-width="0.7058"/>
</svg>
