<svg fill="none" height="38" viewBox="0 0 39 38" width="39" xmlns="http://www.w3.org/2000/svg" xmlns:xlink="http://www.w3.org/1999/xlink"><clipPath id="a"><path d="m8 4h24v30h-24z"/></clipPath><g clip-path="url(#a)"><path clip-rule="evenodd" d="m19.6868 4 6.1215 1.76689.0344.05294.0308-.02054.0024.07033 3.8682 5.85148 1.5593 7.1141-.0071.0301.0249.0221-.0374.0316-1.721 7.4247-3.7515 5.6476-5.9479 2.0087-6.0983-2.4141-.0101-.0158h-.0024v-.0039l-3.5535-5.6626-1.39868-6.6938 1.16159-7.4816 4.08099-5.89651.0024-.02687.0106.0079.0309-.04425zm-5.7754 3.12762-3.2388 4.67958c.9156.6005 1.7797 1.1221 2.6047 1.5685zm-.7117 7.01458c-.942-.5081-1.8691-1.0634-2.7796-1.6649l-.92154 5.9344 3.69104-4.1738zm.4824.5216-3.94115 4.4559 3.96785 3.7432c.9114-1.0115 1.9421-2.3113 2.8909-3.9992-.8387-1.5553-1.8187-2.966-2.9176-4.1999zm3.2536 4.8494c-.6587 1.1368-1.3936 2.1913-2.1957 3.1506 1.0418-.4544 2.0974-.7586 3.1766-.9009-.2933-.7751-.6208-1.5263-.9809-2.2497zm1.5854 2.1873c-.3588-.9807-.7702-1.9255-1.231-2.8273.4815-.9024.9085-1.8541 1.2772-2.8463.7757.1032 1.5565.1206 2.3345.0521.3607 1.0062.7767 1.9755 1.2445 2.9001-.4536.8964-.8587 1.8349-1.2119 2.8083-.8014-.116-1.6084-.1451-2.4133-.0869zm-.3438.7823c-1.4223.1596-2.805.6116-4.177 1.3323l.2715 6.6732 5.1578-2.7388c-.2551-1.8167-.6756-3.5851-1.2523-5.2659zm1.874 5.277 5.2805 2.9751v-6.7025c-1.4146-.7286-2.7623-1.2003-4.0608-1.435-.5594 1.6499-.9689 3.3829-1.2197 5.1624zm.6341-5.2533c-.6342-.0811-1.2717-.1054-1.9083-.0727.3793 1.1379.7082 2.3785.9648 3.7274.2519-1.3196.5737-2.5365.9429-3.6547zm.838-.6187c1.0135.1991 2.0518.5357 3.1221 1.0162-.7912-.9984-1.5119-2.0917-2.1531-3.2659-.356.7237-.6796 1.4749-.969 2.2497zm1.3057-2.9087c.7772 1.458 1.6789 2.7905 2.687 3.9707l4.7839-4.0814-4.5557-4.1248c-1.0999 1.2449-2.0792 2.6676-2.9152 4.2355zm3.4658-4.6425 4.2878 3.8823-1.2505-5.7053c-1.0685.7112-2.0743 1.3197-3.0373 1.823zm2.7819-2.4915-3.1588-4.77754.2329 6.53974c.9938-.531 1.9701-1.1189 2.9259-1.7622zm-3.4789 2.0435-.2453-6.90796-5.2622 3.48316c.249 1.6612.6368 3.2799 1.1563 4.8258 1.3957-.1778 2.8139-.644 4.3512-1.401zm-4.097 2.1193c.2951.7965.6262 1.5684.9915 2.3113.6225-1.1402 1.32-2.2041 2.0844-3.1789-1.0549.4306-2.0695.7206-3.0759.8676zm-.8498-.6606c-.375-1.1506-.6794-2.3398-.9103-3.5559-.2305 1.2042-.5378 2.3798-.9187 3.514.6083.069 1.2193.083 1.829.0419zm-2.418-.1249c-1.3898-.2354-2.8329-.7538-4.4177-1.563l.6786-6.68508 4.8989 3.48478c-.2447 1.6432-.6339 3.242-1.1598 4.7633zm-.259.7096c-.3045.7932-.648 1.5588-1.0283 2.2916-.6629-1.2034-1.4094-2.321-2.2295-3.3378 1.1331.5018 2.2076.8503 3.2578 1.0462zm1.7678-6.07424-4.9699-3.53457 4.9202-1.55511 5.3889 1.55669zm10.8088 9.68784-4.5871 3.9131c.064.0711.128.1399.1908.207.966.5405 1.9593 1.1932 2.9852 1.9645l1.4105-6.0846zm-1.695 6.7318-2.9614 4.4591v-6.3888l.048.0514.0177-.0293c.9919.5614 1.9587 1.1983 2.8957 1.9076zm-3.7112 5.1663-5.2686 1.7795-5.2906-2.094 5.1489-2.7341 5.4109 3.0486zm-11.4429-1.126-.2518-6.1984c-.8729.5102-1.7186 1.0992-2.5312 1.763zm-3.0604-5.0881c.8107-.6609 1.6533-1.2495 2.5223-1.7622l-.0059-.0103.0984-.1035-3.7444-3.5322z" fill="#000" fill-rule="evenodd"/></g></svg>