<svg width="38" height="38" viewBox="0 0 38 38" fill="none" xmlns="http://www.w3.org/2000/svg">
<path fill-rule="evenodd" clip-rule="evenodd" d="M18.85 4L34 8.02474L29.9705 23.1368L18.8484 34L7.87158 23.1345L4 8.02553L18.85 4ZM19.2384 4.87789V7.44605L29.6445 10.21L32.6476 8.44L19.2384 4.87789ZM32.9279 9.14421L29.3753 22.4682L27.3818 21.3139L30.1979 10.7532L32.9271 9.14421H32.9279ZM28.7382 10.7445L19.2384 8.22053V10.5574L26.0058 12.355L28.7382 10.7445ZM26.3997 12.9921L29.2797 11.2947L26.7116 20.9263L24.6092 19.7082L26.3997 12.9921ZM25.6158 13.0261L18.9274 11.2497L12.3763 13.0261L14.0847 19.6955L18.9282 24.4892L23.8387 19.6924L25.6158 13.0268V13.0261ZM24.2318 20.3547L19.2384 25.2321V28.5558L26.3682 21.5926L24.2318 20.3547ZM27.0408 21.9811L19.2384 29.6018V32.5734L28.9505 23.0879L27.04 21.9818L27.0408 21.9811ZM18.4908 32.5916V29.5553L10.7626 21.9053L8.80474 23.005L18.49 32.5924L18.4908 32.5916ZM8.44237 22.3497L10.4768 21.2089L7.80842 10.7966L5.06579 9.16711L8.44316 22.3489L8.44237 22.3497ZM5.31526 8.44474L8.30658 10.2211L18.4908 7.46026V4.87316L5.31447 8.44474H5.31526ZM18.4908 8.23553L9.20263 10.7539L11.9271 12.3708L18.49 10.5921V8.23553H18.4908ZM11.6105 13.0537L8.71947 11.3366L11.1511 20.8292L13.2953 19.6268L11.6113 13.0537H11.6105ZM13.6284 20.2971L11.4416 21.5247L18.49 28.5013V25.1089L13.6284 20.2971Z" fill="black"/>
</svg>
