<?xml version="1.0" encoding="utf-8"?>
<!-- Generator: Adobe Illustrator 19.2.0, SVG Export Plug-In . SVG Version: 6.00 Build 0)  -->
<svg version="1.1" id="Layer_1" xmlns="http://www.w3.org/2000/svg" xmlns:xlink="http://www.w3.org/1999/xlink" x="0px" y="0px"
	 viewBox="0 0 50 50" style="enable-background:new 0 0 50 50;" xml:space="preserve">
<style type="text/css">
	.st0{fill:none;stroke:#000000;stroke-width:0.706;stroke-miterlimit:10;}
</style>
<path class="st0" d="M13.3,8.9h21.8l5.9,4.5v22.8l-5.5,4.9H14.2l-5.2-5V13.2L13.3,8.9z M15.4,11.8h17.9l4.8,3.7v18.7l-4.5,4H16.1
	l-4.2-4.1V15.3L15.4,11.8z M17.3,14.5h14.3l3.8,2.9v14.9l-3.6,3.2H17.9l-3.3-3.3V17.3L17.3,14.5z M19,16.7h11.2l3,2.3v11.8l-2.8,2.5
	h-11l-2.6-2.6V18.9L19,16.7z M19,16.7l-5.7-7.8 M16.8,18.9L9,13.2 M30.2,16.7l4.9-7.8 M33.2,19l7.8-5.6 M33.2,30.8l7.8,5.4
	 M30.4,33.3l5.1,7.8 M16.8,30.7L9,36.1 M19.4,33.3l-5.2,7.8"/>
</svg>
