<?xml version="1.0" encoding="utf-8"?>
<!-- Generator: Adobe Illustrator 19.2.0, SVG Export Plug-In . SVG Version: 6.00 Build 0)  -->
<svg version="1.1" id="Layer_1" xmlns="http://www.w3.org/2000/svg" xmlns:xlink="http://www.w3.org/1999/xlink" x="0px" y="0px"
	 viewBox="0 0 50 50" style="enable-background:new 0 0 50 50;" xml:space="preserve">
<style type="text/css">
	.st0{fill:none;stroke:#231F20;stroke-width:0.706;stroke-miterlimit:10;}
</style>
<path class="st0" d="M8.6,8.8l4.2-4h24.4l4.2,4v32.7l-4.8,3.7H12.8l-4.2-4V8.8z M11.8,11.2l3.4-3.3h19.6l3.4,3.3V39l-3.9,3.1H15.2
	l-3.4-3.3V11.2z M12.8,4.8l2.4,3.1l9.8,2.9l9.8-2.9l2.4-3.1 M12.8,45.2l2.4-3.1l9.8-2.8l9.3,2.8l2.3,3.1 M8.6,8.8l3.2,3l13.2-1
	l13.2,0.7l3.2-2.7 M8.6,41.2l3.2-2.4L25,39.3L38.2,39l3.2,2.5 M11.8,38.8L16,25l-4.2-13.2 M38.2,11.5l-3.4,13.8L38.2,39 M15.2,7.9
	L16,25l-0.8,17.1 M34.8,7.9v17.4l-0.5,16.8"/>
</svg>
