<?xml version="1.0" encoding="utf-8"?>
<!-- Generator: Adobe Illustrator 19.2.0, SVG Export Plug-In . SVG Version: 6.00 Build 0)  -->
<svg version="1.1" id="Layer_1" xmlns="http://www.w3.org/2000/svg" xmlns:xlink="http://www.w3.org/1999/xlink" x="0px" y="0px"
	 viewBox="0 0 50 50" style="enable-background:new 0 0 50 50;" xml:space="preserve">
<style type="text/css">
	.st0{fill:none;stroke:#231F20;stroke-width:0.706;stroke-miterlimit:10;}
</style>
<path class="st0" d="M13.3,5.1h23.4L41,9.6v30.8l-3.3,4.5H13.3L9,41.1v-32L13.3,5.1z M14.4,7.3h20.9l3.5,4.3v26.6L36,42.1H15
	l-3.8-3.3V11.3L14.4,7.3z M15.7,9.7h18.2l3,3.5v23.2l-2.4,3.4H16.3l-3.2-2.9V13L15.7,9.7z M17.1,11.9h15.4l2.6,3v19.8L33,37.5H17.7
	l-2.8-2.4V14.6L17.1,11.9z M14.9,35.1l-5.9,6 M17.7,37.5l-4.4,7.4 M33,37.5l4.7,7.4 M35.1,34.7l5.9,5.7 M35.1,14.9L41,9.6
	 M32.5,11.9l4.2-6.8 M14.9,14.6L9,9.1 M17.1,11.9l-3.8-6.8"/>
</svg>
