<?xml version="1.0" encoding="utf-8"?>
<!-- Generator: Adobe Illustrator 19.2.0, SVG Export Plug-In . SVG Version: 6.00 Build 0)  -->
<svg version="1.1" id="Layer_1" xmlns="http://www.w3.org/2000/svg" xmlns:xlink="http://www.w3.org/1999/xlink" x="0px" y="0px"
	 viewBox="0 0 50 50" style="enable-background:new 0 0 50 50;" xml:space="preserve">
<style type="text/css">
	.st0{fill:none;stroke:#231F20;stroke-width:0.706;stroke-miterlimit:10;}
</style>
<path class="st0" d="M25,3.3c0,0-15.4,9.2-15.4,31.5c0,4.9,5.5,12,15.5,11.8c9.8-0.2,15.2-7.3,15.3-13.2C40.7,20,33.4,8.6,25,3.3z
	 M25.1,3.7l-4.5,8.6l-3.9,19.1l-2.9,5.9l4.9,0.8l6.2,2.2l6.2-1.5l4.9-1l-2.6-5.7l-4-19.3L25.1,3.7z M25.2,46.5l4.7-4.6l3.5-9.8
	l2.2-6.8L31,20.5l-6-5.4l-6.2,6l-4.5,4.5l2.4,5.8l2,6.7l1.7,4.3L25.2,46.5z M17.8,10l7.2,5.1l7.3-5.1 M20.6,12l-7,4.7l0.7,8.9
	l-4.4,5.9l3.7,5.9l1.5,6.3l5.3-1.3l4.5-2.1l5,1.6l4.8,1.4l1.4-5.5l4.1-6.3l-4.6-6.2l0.5-9.5l-6.8-3.7"/>
</svg>
