<?xml version="1.0" encoding="utf-8"?>
<!-- Generator: Adobe Illustrator 19.2.0, SVG Export Plug-In . SVG Version: 6.00 Build 0)  -->
<svg version="1.1" id="Layer_1" xmlns="http://www.w3.org/2000/svg" xmlns:xlink="http://www.w3.org/1999/xlink" x="0px" y="0px"
	 viewBox="0 0 50 50" style="enable-background:new 0 0 50 50;" xml:space="preserve">
<style type="text/css">
	.st0{fill:none;stroke:#231F20;stroke-width:0.706;stroke-miterlimit:10;}
</style>
<path class="st0" d="M25,8.6c9.1,0,16.4,7.3,16.4,16.4S34.1,41.4,25,41.4S8.6,34.1,8.6,25S15.9,8.6,25,8.6z M14.4,29.4l6.3-15
	l15,6.3l-6.3,15L14.4,29.4z M14.4,20.6l15.1-6.2l6.2,15.1l-15.1,6.2L14.4,20.6z M25,8.7l-4.3,5.7l-7.4-0.7l1.1,6.8l-5.7,4.7l5.7,4.1
	l-0.8,7.4l6.9-1.1l4.9,5.7l3.9-5.7l7.1,1.1l-0.8-7.2l5.7-4.2l-5.7-4.6l1.1-7.1l-7.2,0.8L25,8.7z M20.7,14.4L18.6,10 M29.5,14.4
	l1.7-4.5 M14.4,20.5L9.8,19 M14.4,29.3l-4.5,1.9 M20.5,35.6l-1.8,4.5 M29.3,35.6l1.7,4.5 M35.6,29.6l4.6,1.7 M35.7,20.5l4.5-1.4"/>
</svg>
