<svg width="38" height="38" viewBox="0 0 38 38" fill="none" xmlns="http://www.w3.org/2000/svg">
<path fill-rule="evenodd" clip-rule="evenodd" d="M4 4H34L26.3232 34H11.3926L4 4ZM5.51974 4.75L8.63026 7.31105H29.3476L32.4724 4.75H5.51974ZM32.8766 5.38553L30.0558 7.69789L24.13 30.2161L25.8771 32.74L32.8766 5.38553ZM25.3213 33.25H12.5184L14.3524 30.6889H23.5497L25.3229 33.25H25.3213ZM23.5718 29.41L29.0745 8.50316L26.7811 10.3821L22.4271 27.7561L23.5718 29.41ZM21.7347 27.4553L25.9726 10.5447H11.9911L16.2297 27.4553H21.7347ZM15.5358 27.7529L11.1826 10.3813L9.20895 8.75579L14.2347 29.5695L15.5358 27.7529ZM14.8884 29.9389H23.0303L21.8303 28.2053H16.1303L14.8884 29.9389ZM13.6616 30.37L8.25132 7.96789L5.10684 5.37842L11.8789 32.86L13.6616 30.37ZM9.54053 8.06105L11.6476 9.79474H26.3184L28.4342 8.06105H9.54053Z" fill="black"/>
</svg>
