<svg width="38" height="38" viewBox="0 0 38 38" fill="none" xmlns="http://www.w3.org/2000/svg">
<g clip-path="url(#clip0_2140_2387)">
<path fill-rule="evenodd" clip-rule="evenodd" d="M21.4481 33.609H16.5534C9.84288 33.609 4.39551 28.1616 4.39551 21.4511V16.5563C4.39551 9.84581 9.84288 4.39844 16.5534 4.39844H21.4481C28.1587 4.39844 33.606 9.84581 33.606 16.5563V21.4511C33.606 28.0826 28.0797 33.609 21.4481 33.609Z" stroke="black" stroke-width="0.661687"/>
<path fill-rule="evenodd" clip-rule="evenodd" d="M19.0009 11.3438L24.3693 13.6332L26.6588 19.0016L24.3693 24.3701L19.0009 26.6595L13.6325 24.3701L11.343 19.0016L13.6325 13.6332L19.0009 11.3438Z" stroke="black" stroke-width="0.661687"/>
<path fill-rule="evenodd" clip-rule="evenodd" d="M13.6322 13.6287L8.6585 13.7076L8.18481 8.02344L13.6322 8.81291V13.6287Z" stroke="black" stroke-width="0.661687"/>
<path fill-rule="evenodd" clip-rule="evenodd" d="M18.9998 11.345L13.6313 8.81867L19.3156 4.47656L24.5261 8.73972L18.9998 11.345Z" stroke="black" stroke-width="0.661687"/>
<path d="M13.6308 8.81332L11.1045 5.73438" stroke="black" stroke-width="0.661687"/>
<path fill-rule="evenodd" clip-rule="evenodd" d="M24.5267 13.5703L29.3283 13.6484L29.793 8.02344L24.4492 8.80469L24.5267 13.5703Z" stroke="black" stroke-width="0.661687"/>
<path d="M24.4492 8.81332L27.0545 5.73438" stroke="black" stroke-width="0.661687"/>
<path fill-rule="evenodd" clip-rule="evenodd" d="M13.6322 24.447L8.6585 24.2891L8.18481 29.9733L13.6322 29.2627V24.447Z" stroke="black" stroke-width="0.661687"/>
<path fill-rule="evenodd" clip-rule="evenodd" d="M18.9998 26.6562L13.6313 29.2615L19.3156 33.5247L24.5261 29.2615L18.9998 26.6562Z" stroke="black" stroke-width="0.661687"/>
<path d="M13.6308 29.2656L11.1045 32.2656" stroke="black" stroke-width="0.661687"/>
<path fill-rule="evenodd" clip-rule="evenodd" d="M24.5248 24.4418L29.377 24.2891L29.8465 29.7891L24.4465 29.1016L24.5248 24.4418Z" stroke="black" stroke-width="0.661687"/>
<path d="M24.4492 29.2656L27.0545 32.2656" stroke="black" stroke-width="0.661687"/>
<path fill-rule="evenodd" clip-rule="evenodd" d="M26.6575 18.9206L29.4996 13.7891L33.5259 19.2364L29.4996 24.2891L26.6575 18.9206Z" stroke="black" stroke-width="0.661687"/>
<path fill-rule="evenodd" clip-rule="evenodd" d="M11.4219 18.9215L8.65873 13.7109L4.55347 19.2373L8.65873 24.2899L11.4219 18.9215Z" stroke="black" stroke-width="0.661687"/>
<path d="M8.65845 24.2891L5.65845 26.8943" stroke="black" stroke-width="0.661687"/>
<path d="M8.65851 13.7093L5.81641 10.8672" stroke="black" stroke-width="0.661687"/>
<path d="M29.4993 13.7882L32.1045 10.8672" stroke="black" stroke-width="0.661687"/>
<path d="M29.4993 24.2891L32.2624 26.7364" stroke="black" stroke-width="0.661687"/>
</g>
<defs>
<clipPath id="clip0_2140_2387">
<rect width="30" height="30" fill="white" transform="translate(4 4)"/>
</clipPath>
</defs>
</svg>
