<svg width="38" height="38" viewBox="0 0 38 38" fill="none" xmlns="http://www.w3.org/2000/svg">
<g clip-path="url(#clip0_2142_2976)">
<path fill-rule="evenodd" clip-rule="evenodd" d="M11.0108 18.5798H11.0085C10.9035 20.9648 11.7607 24.8535 14.1135 28.1287C16.4812 31.4227 20.3631 34.0956 26.2753 33.9974H26.3848V4H26.267C20.2379 4 16.4084 6.57622 14.0955 9.72393C11.8545 12.7741 11.0498 16.3441 11.0108 18.5798ZM24.9606 4.80174C24.162 4.85388 23.3682 4.96341 22.5853 5.12949L21.4641 8.0657L24.9598 4.80174H24.9606ZM20.4869 8.53894L21.7063 5.34623C20.6138 5.64726 19.5644 6.08682 18.5834 6.65422L20.4869 8.53894ZM17.2934 7.51596C16.3592 8.22993 15.5263 9.06759 14.8177 10.0059L15.8197 10.8084L17.2934 7.51596ZM15.3337 11.3822L14.379 10.6187C13.7903 11.4919 13.2939 12.4239 12.8977 13.3996L15.3337 11.3822ZM12.2415 15.3504C11.9265 16.5293 11.7795 17.6176 11.7547 18.4913H13.1317C13.0305 17.5613 12.7402 16.5563 12.2415 15.3504ZM13.1737 19.2496H11.7472C11.775 20.235 11.955 21.4298 12.3217 22.7018C12.8857 21.4448 13.1662 20.3805 13.1737 19.2841V19.2496ZM12.9652 24.5317C13.4267 25.644 14.0129 26.7003 14.7127 27.6802C15.4592 28.7273 16.3506 29.6632 17.3602 30.4597L15.8159 26.841L15.7064 26.8027L12.9652 24.5317ZM16.7692 27.1777L18.2804 30.7184L20.0136 28.3244L16.7692 27.1777ZM20.5071 28.9177L18.7191 31.3882C19.6185 31.9183 20.5794 32.3364 21.5803 32.6331L20.5071 28.9177ZM22.4181 32.8551C23.2452 33.044 24.0866 33.1632 24.9336 33.2114L21.4161 29.3872L22.4181 32.8544V32.8551ZM22.1518 29.0797L24.8458 32.0091L23.8468 29.6789L22.1518 29.0797ZM24.6891 29.7547L25.643 31.9792V6.07897L24.7686 7.92395L24.6891 29.7547ZM24.0568 7.68545L24.9193 5.86598L22.1361 8.46544L24.0568 7.68545ZM20.1576 9.26868L18.1949 7.32546L16.6949 10.6749L20.1576 9.26868ZM15.6059 12.1321L12.7035 14.5359C13.302 15.8956 13.6815 17.0543 13.836 18.1433L15.7799 15.4794C15.7349 14.4384 15.6772 13.3389 15.6059 12.1321ZM15.8264 16.6838L14.1915 18.9233L15.8947 21.132C15.9014 19.6328 15.8789 18.2056 15.8264 16.6838ZM16.6289 22.0853C16.6552 19.9051 16.6237 17.9378 16.5322 15.7164L20.8161 9.84543L22.5193 11.1557V26.3752L20.8296 27.5332L16.6297 22.0853H16.6289ZM15.8842 22.3433L13.8967 19.7656C13.8112 20.9558 13.4362 22.1115 12.807 23.4255L15.7957 25.9005C15.8392 24.615 15.8692 23.4495 15.8842 22.3433ZM16.5247 26.289C16.5622 25.215 16.5914 24.225 16.6102 23.2853L19.8254 27.4552L16.5247 26.289ZM21.4408 28.0267L23.4411 28.7332L22.7526 27.1282L21.4408 28.0267ZM23.2611 26.5117L23.2926 26.4982L23.9533 28.0394L24.0208 9.49968L23.2611 11.1009V26.5125V26.5117ZM22.7698 10.3997L23.5776 8.69569L21.5998 9.49893L22.7698 10.3989V10.3997ZM19.5306 10.3397L16.4782 14.5216C16.4354 13.6216 16.3822 12.6706 16.3207 11.6424L19.5306 10.3389V10.3397Z" fill="black"/>
</g>
<defs>
<clipPath id="clip0_2142_2976">
<rect width="16" height="30" fill="white" transform="translate(11 4)"/>
</clipPath>
</defs>
</svg>
