<svg width="38" height="38" viewBox="0 0 38 38" fill="none" xmlns="http://www.w3.org/2000/svg">
<path fill-rule="evenodd" clip-rule="evenodd" d="M19.8175 4L29.6365 19L19.8175 34L10 19L19.8175 4ZM10.8048 19.264L19.555 32.6335V30.4757L12.2162 19.264H10.804H10.8048ZM12.8485 19.264L19.5557 29.512V26.8353L14.599 19.264H12.8477H12.8485ZM15.0573 19L19.8182 26.2735L24.5793 19L19.8182 11.7265L15.0573 19ZM20.0822 11.1663L25.0375 18.736H26.7887L20.0822 8.49025V11.1663ZM19.5542 8.49025L12.8477 18.736H14.599L19.555 11.1663V8.49025H19.5542ZM19.5542 7.52575L12.217 18.736H10.804L19.5542 5.36725V7.52575ZM20.0822 7.52575L27.4195 18.736H28.8325L20.0822 5.36725V7.52575ZM28.8325 19.264H27.4195L20.083 30.4735V32.6313L28.8325 19.264ZM20.083 29.509L26.7887 19.264H25.0375L20.083 26.833V29.509Z" fill="black"/>
</svg>
