<svg width="38" height="38" viewBox="0 0 38 38" fill="none" xmlns="http://www.w3.org/2000/svg">
<path fill-rule="evenodd" clip-rule="evenodd" d="M19.1579 4L26.4771 6.18842L32.1195 11.6026L34.0016 19.2092L32.1203 26.2939L26.4787 32.3318L19.1555 34L11.7321 32.3326L5.98868 26.2971L4 19.2053L6.19474 11.6042L11.4211 6.29342L11.5174 6.19553L11.5237 6.18842L19.1579 4ZM11.0389 7.74842L7.20526 11.6445L9.63684 13.0442L9.65579 13.0339L11.0389 7.74842ZM9.28237 13.705L6.78211 12.2666L5.15816 17.8908L9.28237 13.705ZM5.12105 20.4266L6.61 25.7382L9.14105 24.2816L5.12105 20.4266ZM9.55474 24.9084L7.06474 26.3405L11.3492 30.8437L9.55474 24.9084ZM13.1311 31.8795L18.7805 33.1474V30.3503L13.1303 31.8787L13.1311 31.8795ZM19.5297 30.3526V33.1466L25.0932 31.8795L19.5297 30.3526ZM26.8813 30.8026L31.1184 26.2679L28.7255 24.8911L26.8813 30.8026ZM29.1558 24.2737L31.5195 25.6339L32.9595 20.2158L29.1558 24.1632V24.2737ZM29.1558 23.0832L32.9026 19.1942L29.1558 14.9153V23.0832ZM29.1558 13.7784L32.9611 18.1237L31.5139 12.2737L29.1558 13.6308V13.7784ZM28.7745 12.9858L31.09 11.6532L26.9216 7.65289L28.6884 12.9361L28.7745 12.9858ZM27.7095 12.3732L25.9339 7.06474L20.6184 8.29316L27.7095 12.3732ZM19.6647 7.74447L24.9668 6.51921L19.5297 4.89289V7.66711L19.6647 7.74447ZM18.7805 7.78158L13.0513 6.53026L18.7805 4.88816V7.78158ZM17.8174 8.33816L10.5684 12.5089L11.9934 7.06553L17.8174 8.33816ZM18.7805 8.64842L10.3884 13.4768L18.7805 18.3045V8.65V8.64842ZM19.5297 8.54421L19.5455 8.54105L28.0229 13.4176L19.5297 18.3045V8.54421ZM18.7797 19.6L10.4776 24.3771L18.7813 29.155V19.6H18.7797ZM18.2539 29.7163L10.4303 25.2147L12.28 31.3332L18.2539 29.7163ZM10.1066 23.7258L18.4039 18.9526L10.1066 14.1787V23.7258ZM9.35895 14.6974V23.4511L4.92368 19.1982L9.35895 14.6974ZM20.1905 29.7566L25.9324 31.3324L27.7868 25.3861L20.1905 29.7566ZM28.4074 23.8434L19.9063 18.9526L28.4066 14.0618L28.4074 23.8434ZM27.9353 24.4355L19.5297 19.6V29.2718L27.9345 24.4363L27.9353 24.4355Z" fill="black"/>
</svg>
