<svg width="38" height="38" viewBox="0 0 38 38" fill="none" xmlns="http://www.w3.org/2000/svg">
<g clip-path="url(#clip0_15866_44944)">
<path fill-rule="evenodd" clip-rule="evenodd" d="M11.337 7.0109L13.181 10.1719L7.95153 19.1369L4.26364 19.1368L11.337 7.0109ZM4.26364 19.8105L7.95153 19.8106L13.181 28.7755L11.337 31.9364L4.26364 19.8105ZM11.9267 32.2737H26.0734L24.2294 29.1123H13.7709L11.9267 32.2737ZM14.1639 28.4386H23.8364L22.2589 25.7343H15.7414L14.1639 28.4386ZM15.7414 25.0607H22.2589L25.5179 19.4737L22.2589 13.8868H15.7414L12.4824 19.4737L15.7414 25.0607ZM11.8925 19.1369L15.1515 13.55L13.5742 10.846L8.73788 19.1369H11.8925ZM8.73788 19.8106L13.5742 28.1014L15.1515 25.3975L11.8925 19.8106H8.73788ZM14.1638 10.5088L15.7414 13.2131H22.2589L23.8364 10.5088H14.1638ZM24.4261 10.846L29.2623 19.1369H26.1078L22.8488 13.55L24.4261 10.846ZM26.1078 19.8106L22.8488 25.3975L24.4261 28.1014L29.2623 19.8106H26.1078ZM30.0487 19.8106L24.8192 28.7755L26.6631 31.9364L33.7365 19.8105L30.0487 19.8106ZM33.7365 19.1368L30.0488 19.1369L24.8192 10.172L26.6631 7.01091L33.7365 19.1368ZM26.0734 6.67368L24.2294 9.83509H13.7709L11.9267 6.67368H26.0734ZM26.8598 6L34.7194 19.4737L26.8598 32.9474H11.1403L3.28076 19.4737L11.1403 6L26.8598 6Z" fill="black"/>
</g>
<defs>
<clipPath id="clip0_15866_44944">
<rect width="32" height="26.9474" fill="white" transform="translate(3 6)"/>
</clipPath>
</defs>
</svg>
