<svg width="38" height="38" viewBox="0 0 38 38" fill="none" xmlns="http://www.w3.org/2000/svg">
<path fill-rule="evenodd" clip-rule="evenodd" d="M12 4H26.4975L24.7245 34H13.7723L12 4ZM12.5925 4.95325L14.2575 33.1232L15.4905 31.8955L13.7648 6.1195L12.5925 4.95325ZM14.34 6.6925L15.9945 31.3937L17.013 30.3797L15.2715 7.6195L14.34 6.6925ZM15.8775 7.4665L14.673 6.26875H23.8223L22.62 7.4665H15.8775ZM15.8528 8.1985L17.5125 29.8825L18.318 29.0807L16.596 8.938L15.8535 8.1985H15.8528ZM16.965 8.5495L16.4152 8.002H22.0822L21.5317 8.5495H16.965ZM17.1465 9.085L18.8415 28.915H19.6553L21.3503 9.085H17.1473H17.1465ZM21.9015 8.938L20.1788 29.0807L20.9843 29.8832L22.644 8.1985L21.9015 8.938ZM23.2253 7.6195L21.4838 30.3797L22.503 31.3937L24.1567 6.6925L23.2253 7.6195ZM24.7327 6.1195L23.0063 31.8955L24.2393 33.1232L25.9043 4.95325L24.732 6.1195H24.7327ZM25.563 4.5355H12.933L14.136 5.73325H24.36L25.5638 4.5355H25.563ZM23.8223 33.4645L22.6193 32.2668H15.8775L14.6737 33.4645H23.823H23.8223ZM16.4145 31.7313H22.0815L21.096 30.7502H17.4L16.4152 31.7313H16.4145ZM17.9377 30.2148H20.5575L19.7902 29.4498H18.705L17.9377 30.2148Z" fill="black"/>
</svg>
